<svg version="1.1" viewBox="0.0 0.0 176.61942257217848 176.88976377952756" fill="none" stroke="none" stroke-linecap="square" stroke-miterlimit="10" xmlns:xlink="http://www.w3.org/1999/xlink" xmlns="http://www.w3.org/2000/svg"><clipPath id="p.0"><path d="m0 0l176.61942 0l0 176.88977l-176.61942 0l0 -176.88977z" clip-rule="nonzero"/></clipPath><g clip-path="url(#p.0)"><path fill="#000000" fill-opacity="0.0" d="m0 0l176.61942 0l0 176.88977l-176.61942 0z" fill-rule="evenodd"/><path fill="#000000" fill-opacity="0.0" d="m-14.608924 -48.188976l208.53543 0l0 175.46457l-208.53543 0z" fill-rule="evenodd"/><path fill="#52b7e8" d="m89.565025 155.21727q-30.40625 0 -50.015625 -19.40625q-19.593748 -19.40625 -19.593748 -49.59375q0 -29.999996 19.593748 -49.499996q19.609375 -19.5 50.015625 -19.5q30.59375 0 50.187508 19.5q19.609375 19.5 19.609375 49.499996q0 28.59375 -17.40625 47.1875l9.796875 11.40625l-19.796875 16.203125l-10.796883 -12.40625q-14.40625 6.609375 -31.59375 6.609375zm0 -25.203125q7.0 0 14.0 -2.203125l-14.609375 -17.203125l19.609375 -16.203125l14.796875 17.40625q6.7968826 -11.203125 6.7968826 -25.59375q0 -19.0 -11.109383 -31.406246q-11.09375 -12.40625 -29.484375 -12.40625q-18.40625 0 -29.40625 12.40625q-11.0 12.406246 -11.0 31.406246q0 19.1875 11.203125 31.5q11.203125 12.296875 29.203125 12.296875z" fill-rule="nonzero"/></g></svg>