<svg version="1.1" viewBox="0.0 0.0 613.5354330708661 249.14698162729658" fill="none" stroke="none" stroke-linecap="square" stroke-miterlimit="10" xmlns:xlink="http://www.w3.org/1999/xlink" xmlns="http://www.w3.org/2000/svg"><clipPath id="p.0"><path d="m0 0l613.53546 0l0 249.14699l-613.53546 0l0 -249.14699z" clip-rule="nonzero"/></clipPath><g clip-path="url(#p.0)"><path fill="#000000" fill-opacity="0.0" d="m0 0l613.53546 0l0 249.14699l-613.53546 0z" fill-rule="evenodd"/><path fill="#000000" fill-opacity="0.0" d="m-0.001312336 0l613.3544 0l0 248.34645l-613.3544 0z" fill-rule="evenodd"/><path fill="#1b4461" d="m100.37262 203.40625q-31.0 0 -51.0 -19.703125q-20.0 -19.703125 -20.0 -49.296875q0 -19.609375 9.296875 -35.609375q9.3125 -16.0 25.703125 -24.6875q16.40625 -8.703125 36.0 -8.703125q36.796875 0 55.796875 32.59375l-24.390625 12.0q-4.203125 -8.203125 -12.609375 -13.796875q-8.390625 -5.609375 -18.796875 -5.609375q-18.203125 0 -30.0 12.5q-11.796875 12.5 -11.796875 31.3125q0 19.390625 12.0 31.59375q12.0 12.203125 29.796875 12.203125q10.40625 0 18.796875 -5.5q8.40625 -5.5 12.609375 -13.90625l24.390625 11.796875q-19.0 32.8125 -55.796875 32.8125zm117.009415 0q-22.40625 0 -36.703125 -14.40625q-14.296875 -14.40625 -14.296875 -36.40625q0 -22.0 14.296875 -36.296875q14.296875 -14.296875 36.703125 -14.296875q22.390625 0 36.78125 14.296875q14.406265 14.296875 14.406265 36.296875q0 22.203125 -14.406265 36.515625q-14.390625 14.296875 -36.78125 14.296875zm0 -22.609375q11.0 0 17.890625 -7.890625q6.90625 -7.90625 6.90625 -20.3125q0 -12.0 -6.90625 -20.0q-6.890625 -8.0 -17.890625 -8.0q-10.609375 0 -17.609375 7.703125q-7.0 7.703125 -7.0 20.296875q0 12.8125 7.0 20.515625q7.0 7.6875 17.609375 7.6875zm104.80003 22.609375q-12.609375 0 -24.109375 -4.0q-11.5 -4.0 -19.09375 -11.0l11.0 -17.8125q5.796875 5.40625 15.390625 9.3125q9.609375 3.890625 18.0 3.890625q16.203125 0 16.203125 -10.390625q0 -4.0 -4.296875 -6.0q-4.296875 -2.0 -10.5 -3.40625l-13.796875 -2.796875q-28.796875 -6.203125 -28.796875 -28.796875q0 -13.40625 11.09375 -21.90625q11.09375 -8.5 28.5 -8.5q22.59375 0 39.0 13.203125l-10.203125 17.390625q-4.390625 -4.59375 -12.0 -7.890625q-7.59375 -3.296875 -16.59375 -3.296875q-7.0 0 -11.109375 2.796875q-4.09375 2.796875 -4.09375 6.796875q0 3.59375 4.203125 5.40625q4.203125 1.796875 10.59375 3.09375q6.40625 1.296875 13.796875 3.0q7.40625 1.703125 13.796875 5.109375q6.40625 3.390625 10.609375 9.1875q4.203125 5.796875 4.203125 15.609375q0 14.0 -11.40625 22.5q-11.390625 8.5 -30.390625 8.5zm92.993774 0q-27.40625 0 -27.40625 -26.40625l0 -50.40625l-16.0 0l0 -22.1875l16.0 0l0 -26.40625l25.609375 0l0 26.40625l19.59375 0l0 22.1875l-19.59375 0l0 43.609375q0 4.59375 2.296875 7.59375q2.296875 3.0 6.5 3.0q6.0 0 8.796875 -2.796875l5.40625 19.203125q-6.609375 6.203125 -21.203125 6.203125z" fill-rule="nonzero"/><path fill="#52b7e8" d="m514.1821 203.40625q-30.40625 0 -50.015625 -19.40625q-19.59375 -19.40625 -19.59375 -49.59375q0 -30.0 19.59375 -49.5q19.609375 -19.5 50.015625 -19.5q30.59375 0 50.1875 19.5q19.609375 19.5 19.609375 49.5q0 28.59375 -17.40625 47.1875l9.796875 11.40625l-19.796875 16.203125l-10.796875 -12.40625q-14.40625 6.609375 -31.59375 6.609375zm0 -25.203125q7.0 0 14.0 -2.203125l-14.609375 -17.203125l19.609375 -16.203125l14.796875 17.40625q6.796875 -11.203125 6.796875 -25.59375q0 -19.0 -11.109375 -31.40625q-11.09375 -12.40625 -29.484375 -12.40625q-18.40625 0 -29.40625 12.40625q-11.0 12.40625 -11.0 31.40625q0 19.1875 11.203125 31.5q11.203125 12.296875 29.203125 12.296875z" fill-rule="nonzero"/></g></svg>